# xmcd CD database file
#
# Track frame offsets:
#	150
#	50565
#	98829
#	163252
#	198380
#	241030
#
# Disc length: 3837 seconds
#
# Revision: 4
# Processed by: cddbd v1.5.2PL0 Copyright (c) Steve Scherf et al.
# Submitted via: CDex 1.51
#
DISCID=490efb06
DTITLE=Charlie Haden - The Montréal Tapes - Gonzalo Rubalcaba and Paul Motian
DYEAR=1989
DGENRE=Jazz
TTITLE0=Vignette
TTITLE1=Bay City
TTITLE2=La Pasionaria
TTITLE3=Silence
TTITLE4=The Blessing
TTITLE5=Solar
EXTD=Recorded live at the Montreal International Jazz Festival on July 3, 1989.\n\nThird in a series\nSubmitted by rwright22@earthlink.net YEAR: 1989
EXTT0=
EXTT1=
EXTT2=
EXTT3=
EXTT4=
EXTT5=
PLAYORDER=
